<svg width="13" height="25" viewBox="0 0 13 25" fill="none" xmlns="http://www.w3.org/2000/svg">
<path d="M11.1359 5.82711V18.4472C11.1359 20.8725 9.19072 22.8369 6.7891 22.8369C4.38747 22.8369 2.44226 20.8725 2.44226 18.4472V4.7297C2.44226 3.21529 3.65937 1.98619 5.15903 1.98619C6.65869 1.98619 7.8758 3.21529 7.8758 4.7297V16.2524C7.8758 16.856 7.38679 17.3498 6.7891 17.3498C6.19141 17.3498 5.70239 16.856 5.70239 16.2524V5.82711H4.07232V16.2524C4.07232 17.7669 5.28944 18.9959 6.7891 18.9959C8.28875 18.9959 9.50587 17.7669 9.50587 16.2524V4.7297C9.50587 2.30444 7.56066 0.340088 5.15903 0.340088C2.7574 0.340088 0.812195 2.30444 0.812195 4.7297V18.4472C0.812195 21.7834 3.4855 24.483 6.7891 24.483C10.0927 24.483 12.766 21.7834 12.766 18.4472V5.82711H11.1359Z" fill="#5B7288"/>
</svg>
