<svg width="36" height="37" viewBox="0 0 36 37" fill="none" xmlns="http://www.w3.org/2000/svg">
<path fill-rule="evenodd" clip-rule="evenodd" d="M11.333 28.7984L16.9995 22.4039C16.2628 22.3169 15.7151 22.2734 15.1106 22.2734C10.0675 22.2734 0 25.1879 0 30.9734V35.3235H16.9995L11.333 28.7984ZM15.1106 17.9234C19.2849 17.9234 22.6659 14.0301 22.6659 9.22335C22.6659 4.41658 19.2849 0.523315 15.1106 0.523315C10.9363 0.523315 7.55532 4.41658 7.55532 9.22335C7.55532 14.0301 10.9363 17.9234 15.1106 17.9234Z" fill="#5B7288"/>
<path fill-rule="evenodd" clip-rule="evenodd" d="M23.5536 36.4112L16.9994 28.7987L19.6437 25.732L23.5536 30.256L33.2433 19.0112L35.8877 22.0779L23.5536 36.4112Z" fill="#5B7288"/>
</svg>
