<svg width="36" height="36" viewBox="0 0 36 36" fill="none" xmlns="http://www.w3.org/2000/svg">
<path d="M25.1318 20.188L21.2869 24.2908L32.155 35.8879L35.9999 31.7851L25.1318 20.188Z" fill="#36A792"/>
<path d="M28.0245 14.2879C31.5227 14.2879 34.3683 11.2514 34.3683 7.51869C34.3683 6.39693 34.0783 5.35254 33.6252 4.42418L28.7314 9.64617L26.0308 6.76441L30.9245 1.54242C30.0545 1.0589 29.0758 0.749452 28.0245 0.749452C24.5264 0.749452 21.6808 3.78594 21.6808 7.51869C21.6808 8.31166 21.8258 9.06595 22.0614 9.76221L18.7083 13.3402L15.482 9.8976L16.7689 8.52441L14.2133 5.79737L18.0558 1.69715C15.9352 -0.565715 12.4914 -0.565715 10.3708 1.69715L3.95456 8.54375L6.51018 11.2708H1.39893L0.112061 12.644L6.52831 19.4906L7.81518 18.1174V12.644L10.3708 15.371L11.6577 13.9978L14.8839 17.4405L1.45331 31.7719L5.29581 35.8722L25.922 13.8818C26.5745 14.1332 27.2814 14.2879 28.0245 14.2879Z" fill="#36A792"/>
</svg>
