<svg width="36" height="36" viewBox="0 0 36 36" fill="none" xmlns="http://www.w3.org/2000/svg">
<path d="M9.86916 0C7.2517 0 4.74144 1.24712 2.89061 3.467C1.03978 5.68688 0 8.69769 0 11.8371C0 12.9132 0.161495 13.9893 0.394766 15.0654H7.71589L9.99477 7.81247C10.5331 6.09071 12.6505 5.91854 13.3323 7.81247L17.0467 19.3698L18.1054 16.3136C18.3387 15.6034 18.9667 15.0654 19.7383 15.0654H35.4931C35.7264 13.9893 35.8879 12.9132 35.8879 11.8371C35.8879 8.69769 34.8481 5.68688 32.9972 3.467C31.1464 1.24712 28.6362 0 26.0187 0C22.6811 0 19.7383 2.00154 17.9439 5.03614C16.1495 2.00154 13.2067 0 9.86916 0ZM1.79439 18.2937C1.31849 18.2937 0.862079 18.5204 0.525565 18.924C0.189051 19.3276 0 19.8751 0 20.4459C0 21.0167 0.189051 21.5641 0.525565 21.9677C0.862079 22.3713 1.31849 22.598 1.79439 22.598H6.17271L16.1495 34.4351C17.9439 36.3721 17.9439 36.3721 19.7383 34.4351L29.7151 22.598H34.0935C34.5694 22.598 35.0258 22.3713 35.3623 21.9677C35.6988 21.5641 35.8879 21.0167 35.8879 20.4459C35.8879 19.8751 35.6988 19.3276 35.3623 18.924C35.0258 18.5204 34.5694 18.2937 34.0935 18.2937H20.4561L18.7873 23.2437C18.0695 25.4174 16.006 25.1161 15.3421 23.3083L11.6636 11.8371L9.94094 16.8517C9.67178 17.6695 9.06168 18.2937 8.25421 18.2937H1.79439Z" fill="#5B7288"/>
</svg>
