<svg width="36" height="36" viewBox="0 0 36 36" fill="none" xmlns="http://www.w3.org/2000/svg">
<g clip-path="url(#clip0)">
<path d="M31.9003 3.58879H23.5664C22.729 1.50729 20.5358 0 17.9439 0C15.352 0 13.1589 1.50729 12.3215 3.58879H3.98754C2.92998 3.58879 1.91573 3.96689 1.16792 4.63992C0.420114 5.31294 0 6.22577 0 7.17757V32.2991C0 33.2509 0.420114 34.1637 1.16792 34.8367C1.91573 35.5097 2.92998 35.8879 3.98754 35.8879H31.9003C32.9579 35.8879 33.9721 35.5097 34.7199 34.8367C35.4677 34.1637 35.8879 33.2509 35.8879 32.2991V7.17757C35.8879 6.22577 35.4677 5.31294 34.7199 4.63992C33.9721 3.96689 32.9579 3.58879 31.9003 3.58879ZM17.9439 3.58879C18.4727 3.58879 18.9798 3.77784 19.3537 4.11435C19.7276 4.45086 19.9377 4.90728 19.9377 5.38318C19.9377 5.85908 19.7276 6.31549 19.3537 6.652C18.9798 6.98852 18.4727 7.17757 17.9439 7.17757C17.4151 7.17757 16.908 6.98852 16.5341 6.652C16.1602 6.31549 15.9502 5.85908 15.9502 5.38318C15.9502 4.90728 16.1602 4.45086 16.5341 4.11435C16.908 3.77784 17.4151 3.58879 17.9439 3.58879ZM3.98754 25.1215H10.1882L13.1988 20.0075L14.714 30.3611L22.071 21.9095L25.6997 25.1215H31.9003V32.2991H3.98754V25.1215ZM31.9003 22.3581H26.9757L21.7919 17.6927L16.8274 23.4168L14.9533 10.9099L8.31402 22.3581H3.98754V7.17757H7.97508V8.97196H27.9128V7.17757H31.9003V8.97196V22.3581Z" fill="#5B7288"/>
</g>
<defs>
<clipPath id="clip0">
<rect width="35.8879" height="35.8879" fill="white"/>
</clipPath>
</defs>
</svg>
