<svg width="36" height="36" viewBox="0 0 36 36" fill="none" xmlns="http://www.w3.org/2000/svg">
<path d="M15.5123 23.9907L12.7828 21.472L15.5123 18.9354L18.2226 21.472L20.933 18.9354L18.2226 16.4166L20.933 13.8978L23.6625 16.4166L26.3729 13.8978L20.933 8.84245L7.34288 21.472L12.7828 26.5274L15.5123 23.9907ZM0 30.8146L5.99733 25.259L1.92222 21.472L20.933 3.78707L25.0273 7.592L27.7184 5.05538L25.0273 2.51876L27.7184 0L35.8879 7.592L33.1775 10.0929L30.448 7.592L27.7184 10.0929L31.8127 13.8978L12.7828 31.5649L8.70766 27.7778L0 35.8879V30.8146Z" fill="#5B7288"/>
</svg>
