<svg width="45" height="45" viewBox="0 0 45 45" fill="none" xmlns="http://www.w3.org/2000/svg">
<circle cx="22.5" cy="22.5" r="21.5" fill="white" stroke="#F18C78" stroke-width="2"/>
<path d="M23.1389 16.1111H21.2222V23.7778L27.2278 27.4833L28.25 25.95L23.1389 22.8833V16.1111ZM22.5 11C16.1111 11 11 16.1111 11 22.5C11 28.8889 16.1111 34 22.5 34C28.8889 34 34 28.8889 34 22.5C34 16.1111 28.8889 11 22.5 11ZM22.5 31.4444C17.5167 31.4444 13.5556 27.4833 13.5556 22.5C13.5556 17.5167 17.5167 13.5556 22.5 13.5556C27.4833 13.5556 31.4444 17.5167 31.4444 22.5C31.4444 27.4833 27.4833 31.4444 22.5 31.4444Z" fill="#F18C78"/>
</svg>
