<svg width="28" height="22" viewBox="0 0 28 22" fill="none" xmlns="http://www.w3.org/2000/svg">
<path d="M20.3 11.6999C22.232 11.6999 23.786 10.1319 23.786 8.19991C22.0164 8.19988 22.232 8.19988 20.3 8.19988C18.368 8.19988 19.2548 8.19988 16.8 8.19991C16.8 10.1319 18.368 11.6999 20.3 11.6999ZM9.8 10.2999C12.124 10.2999 13.986 8.42391 13.986 6.09991C12.6 6.09991 12.124 6.09993 9.8 6.09993C7.476 6.09993 7.51777 6.09991 5.6 6.09991C5.6 8.42391 7.476 10.2999 9.8 10.2999ZM20.3 14.4999C17.738 14.4999 12.6 15.7879 12.6 18.3499V21.4999H28V18.3499C28 15.7879 22.862 14.4999 20.3 14.4999ZM9.8 13.0999C6.538 13.0999 0 14.7379 0 17.9999V21.4999H9.8V18.3499C9.8 17.1599 10.262 15.0739 13.118 13.4919C11.9 13.2399 10.724 13.0999 9.8 13.0999Z" fill="#9D9D9D"/>
<path d="M5.48432 5.16023H14.154C14.4284 5.16023 14.652 4.95771 14.652 4.70917V4.69075C14.652 4.44221 14.4284 4.23969 14.154 4.23969H13.8796C13.8796 2.87728 13.0563 1.70818 11.8468 1.0638V1.93832C11.8468 2.19607 11.6232 2.39859 11.3387 2.39859C11.0541 2.39859 10.8305 2.19607 10.8305 1.93832V0.686372C10.5052 0.612728 10.1698 0.557495 9.81409 0.557495C9.45836 0.557495 9.12295 0.612728 8.79771 0.686372V1.93832C8.79771 2.19607 8.57411 2.39859 8.28952 2.39859C8.00494 2.39859 7.78134 2.19607 7.78134 1.93832V1.0638C6.57185 1.70818 5.74858 2.87728 5.74858 4.23969H5.48432C5.2099 4.23969 4.9863 4.44221 4.9863 4.69075V4.71837C4.9863 4.95771 5.2099 5.16023 5.48432 5.16023Z" fill="#9D9D9D"/>
<path d="M16.8963 7.46161H23.9146C24.1368 7.46161 24.3178 7.29959 24.3178 7.10076V7.08603C24.3178 6.88719 24.1368 6.72517 23.9146 6.72517H23.6925C23.6925 5.63524 23.026 4.69997 22.0469 4.18446V4.88408C22.0469 5.09028 21.8659 5.2523 21.6355 5.2523C21.4051 5.2523 21.2241 5.09028 21.2241 4.88408V3.88252C20.9608 3.82361 20.6893 3.77942 20.4013 3.77942C20.1134 3.77942 19.8419 3.82361 19.5786 3.88252V4.88408C19.5786 5.09028 19.3976 5.2523 19.1672 5.2523C18.9368 5.2523 18.7558 5.09028 18.7558 4.88408V4.18446C17.7767 4.69997 17.1102 5.63524 17.1102 6.72517H16.8963C16.6741 6.72517 16.4931 6.88719 16.4931 7.08603V7.10812C16.4931 7.29959 16.6741 7.46161 16.8963 7.46161Z" fill="#9D9D9D"/>
</svg>
