<svg width="28" height="22" viewBox="0 0 28 22" fill="none" xmlns="http://www.w3.org/2000/svg">
<path d="M10.1037 14.6667C6.73158 14.6667 0 16.3045 0 19.5556V22H20.2074V19.5556C20.2074 16.3045 13.4758 14.6667 10.1037 14.6667Z" fill="#9D9D9D"/>
<path d="M26.6485 4.69333C26.6611 4.55888 26.6737 4.42444 26.6737 4.27777C26.6737 4.1311 26.6611 3.99666 26.6358 3.86222L27.5704 3.15333C27.6588 3.09222 27.6715 2.97 27.6209 2.88444L26.7369 1.40555C26.6864 1.30778 26.5601 1.28333 26.4716 1.30778L25.3855 1.73555C25.1582 1.56444 24.9056 1.43 24.6404 1.32L24.4762 0.183333C24.4509 0.0733333 24.3625 0 24.2488 0H22.4807C22.367 0 22.2786 0.0733333 22.266 0.183333L22.1018 1.32C21.8366 1.43 21.584 1.57666 21.3567 1.73555L20.2579 1.30778C20.1568 1.27111 20.0432 1.30778 19.9927 1.40555L19.1086 2.88444C19.0581 2.98222 19.0707 3.09222 19.1591 3.15333L20.0937 3.86222C20.0684 3.99666 20.0558 4.14333 20.0558 4.27777C20.0558 4.41221 20.0684 4.55888 20.0937 4.69333L19.1591 5.40221C19.0707 5.46332 19.0581 5.58555 19.1086 5.6711L19.9927 7.14999C20.0432 7.24777 20.1695 7.27221 20.2579 7.24777L21.3567 6.81999C21.584 6.9911 21.8366 7.12554 22.1018 7.23554L22.266 8.37221C22.2786 8.48221 22.367 8.55554 22.4807 8.55554H24.2488C24.3625 8.55554 24.4509 8.48221 24.4635 8.37221L24.6277 7.23554C24.8929 7.12554 25.1455 6.97888 25.3729 6.81999L26.4716 7.24777C26.5727 7.28443 26.6864 7.24777 26.7369 7.14999L27.6209 5.6711C27.6715 5.57332 27.6588 5.46332 27.5704 5.40221L26.6485 4.69333ZM23.3648 5.80555C22.4933 5.80555 21.7861 5.1211 21.7861 4.27777C21.7861 3.43444 22.4933 2.75 23.3648 2.75C24.2362 2.75 24.9435 3.43444 24.9435 4.27777C24.9435 5.1211 24.2362 5.80555 23.3648 5.80555Z" fill="#9D9D9D"/>
<path d="M23.8952 10.6089L23.2637 9.54554C23.2258 9.47221 23.1374 9.44776 23.0743 9.47221L22.2912 9.77776C22.127 9.65554 21.9502 9.55776 21.7608 9.48443L21.6471 8.67776C21.6219 8.60443 21.5461 8.55554 21.4703 8.55554H20.2073C20.1316 8.55554 20.0684 8.60443 20.0558 8.68999L19.9421 9.49665C19.7527 9.56999 19.5759 9.67999 19.4117 9.78999L18.6286 9.48443C18.5529 9.45999 18.4771 9.48443 18.4392 9.55776L17.8077 10.6211C17.7698 10.6944 17.7825 10.7678 17.8456 10.8167L18.515 11.3178C18.5023 11.4155 18.4897 11.5133 18.4897 11.6111C18.4897 11.7089 18.5023 11.8189 18.515 11.9044L17.8456 12.4055C17.7825 12.4544 17.7698 12.54 17.8077 12.6011L18.4392 13.6644C18.4771 13.7378 18.5655 13.7622 18.6286 13.7378L19.4117 13.4322C19.5759 13.5544 19.7527 13.6522 19.9421 13.7255L20.0558 14.5322C20.0684 14.6178 20.1316 14.6666 20.2073 14.6666H21.4703C21.5461 14.6666 21.6219 14.6178 21.6219 14.5322L21.7355 13.7255C21.925 13.6522 22.1018 13.5422 22.266 13.4322L23.049 13.7378C23.1248 13.7622 23.2006 13.7378 23.2384 13.6644L23.8699 12.6011C23.9078 12.5278 23.8952 12.4544 23.832 12.4055L23.1753 11.9044C23.1879 11.8066 23.2006 11.7089 23.2006 11.6111C23.2006 11.5133 23.1879 11.4033 23.1753 11.3178L23.8447 10.8167C23.9078 10.7678 23.9204 10.6822 23.8952 10.6089ZM20.8388 12.6255C20.2579 12.6255 19.7906 12.1611 19.7906 11.6111C19.7906 11.0489 20.2705 10.5967 20.8388 10.5967C21.4072 10.5967 21.8871 11.0611 21.8871 11.6111C21.8871 12.1733 21.4198 12.6255 20.8388 12.6255Z" fill="#9D9D9D"/>
<path d="M4.72346 7.33333H15.4965C15.8375 7.33333 16.1154 7.06444 16.1154 6.73444V6.71C16.1154 6.38 15.8375 6.11111 15.4965 6.11111H15.1555C15.1555 4.30222 14.1325 2.75 12.6296 1.89445V3.05556C12.6296 3.39778 12.3518 3.66667 11.9981 3.66667C11.6445 3.66667 11.3666 3.39778 11.3666 3.05556V1.39334C10.9625 1.29556 10.5457 1.22223 10.1037 1.22223C9.66164 1.22223 9.24487 1.29556 8.84072 1.39334V3.05556C8.84072 3.39778 8.56287 3.66667 8.20924 3.66667C7.85561 3.66667 7.57776 3.39778 7.57776 3.05556V1.89445C6.07483 2.75 5.05184 4.30222 5.05184 6.11111H4.72346C4.38247 6.11111 4.10461 6.38 4.10461 6.71V6.74667C4.10461 7.06444 4.38247 7.33333 4.72346 7.33333Z" fill="#9D9D9D"/>
<path d="M10.1037 12.2222C12.4528 12.2222 14.4104 10.6578 14.9787 8.55554H5.22864C5.79697 10.6578 7.75456 12.2222 10.1037 12.2222Z" fill="#9D9D9D"/>
</svg>
