<svg width="36" height="36" viewBox="0 0 36 36" fill="none" xmlns="http://www.w3.org/2000/svg">
<path d="M19.7699 4.54366C20.285 4.13789 21.1222 4.13803 21.6356 4.556L23.8736 6.3785H27.4507C26.7708 2.7745 22.8612 -1.52588e-05 18.1638 -1.52588e-05C13.044 -1.52588e-05 8.8684 3.2873 8.77393 7.35679C9.93628 7.2232 15.2309 8.11941 19.7699 4.54366Z" fill="#5B7288"/>
<path d="M18.1667 16.8163C23.3335 16.8163 27.5617 13.4648 27.5617 9.31633L27.559 8.4813H23.3203C22.9665 8.4813 22.6276 8.36761 22.3799 8.16595L20.6392 6.74845C15.455 10.1732 9.96885 9.33553 8.77393 9.45953C8.86823 13.529 13.0452 16.8163 18.1667 16.8163Z" fill="#5B7288"/>
<path d="M27.6776 15.1898C26.1578 16.7543 24.0466 17.9349 21.614 18.5167L2.70013 31.6276H15.7132L27.6776 15.1898Z" fill="#5B7288"/>
<path d="M25.3288 29.8935C25.3288 28.9371 24.3536 28.1592 23.1549 28.1592H21.2841L18.7594 31.6278H23.1549C24.3536 31.6278 25.3288 30.8498 25.3288 29.8935Z" fill="#5B7288"/>
<path d="M8.26047 14.7625H7.25739C4.89546 14.7625 2.90064 16.1122 2.51413 17.9717C0.205849 29.5792 -0.0904904 29.3628 0.209009 30.5695L17.0732 18.8794C13.3938 18.615 10.2308 17.0353 8.26047 14.7625Z" fill="#5B7288"/>
<path d="M35.9907 34.7287L33.8607 18.2202C33.6768 16.7436 32.4764 15.539 30.8421 15.0275L22.8148 26.0562H23.1551C25.8062 26.0562 27.9631 27.7776 27.9631 29.8933C27.9631 32.0092 25.8062 33.7305 23.1551 33.7305H5.72491L5.6018 34.7184C5.52471 35.337 6.1339 35.8736 6.91158 35.8739L34.6798 35.8878C35.7145 35.7089 36.0627 35.287 35.9907 34.7287Z" fill="#5B7288"/>
</svg>
