<svg width="23" height="22" viewBox="0 0 23 22" fill="none" xmlns="http://www.w3.org/2000/svg">
<path d="M16.0348 12.1249L13.5707 14.589L20.5359 21.5542L23 19.0901L16.0348 12.1249Z" fill="#9D9D9D"/>
<path d="M17.8887 8.58135C20.1306 8.58135 21.9543 6.75763 21.9543 4.51574C21.9543 3.84201 21.7685 3.21474 21.4781 2.65717L18.3417 5.7935L16.6109 4.06271L19.7473 0.92638C19.1897 0.635979 18.5624 0.450122 17.8887 0.450122C15.6468 0.450122 13.8231 2.27384 13.8231 4.51574C13.8231 4.992 13.916 5.44502 14.067 5.8632L11.9181 8.01217L9.85041 5.94451L10.6751 5.11977L9.03728 3.48191L11.4999 1.01931C10.1408 -0.339769 7.93376 -0.339769 6.57468 1.01931L2.4626 5.13139L4.10046 6.76925H0.824739L0 7.59399L4.11208 11.7061L4.93682 10.8813V7.59399L6.57468 9.23185L7.39942 8.40711L9.46708 10.4748L0.859587 19.0823L3.32219 21.5449L16.5412 8.33742C16.9594 8.48843 17.4125 8.58135 17.8887 8.58135Z" fill="#9D9D9D"/>
</svg>
