<svg width="36" height="37" viewBox="0 0 36 37" fill="none" xmlns="http://www.w3.org/2000/svg">
<path d="M31.9003 4.42985H23.5664C22.729 2.34835 20.5358 0.841064 17.9439 0.841064C15.352 0.841064 13.1589 2.34835 12.3215 4.42985H3.98754C2.92998 4.42985 1.91573 4.80795 1.16792 5.48098C0.420114 6.15401 0 7.06683 0 8.01863V33.1401C0 34.0919 0.420114 35.0048 1.16792 35.6778C1.91573 36.3508 2.92998 36.7289 3.98754 36.7289H31.9003C32.9579 36.7289 33.9721 36.3508 34.7199 35.6778C35.4677 35.0048 35.8879 34.0919 35.8879 33.1401V8.01863C35.8879 7.06683 35.4677 6.15401 34.7199 5.48098C33.9721 4.80795 32.9579 4.42985 31.9003 4.42985ZM17.9439 4.42985C18.4727 4.42985 18.9798 4.6189 19.3537 4.95541C19.7276 5.29193 19.9377 5.74834 19.9377 6.22424C19.9377 6.70014 19.7276 7.15656 19.3537 7.49307C18.9798 7.82958 18.4727 8.01863 17.9439 8.01863C17.4151 8.01863 16.908 7.82958 16.5341 7.49307C16.1602 7.15656 15.9502 6.70014 15.9502 6.22424C15.9502 5.74834 16.1602 5.29193 16.5341 4.95541C16.908 4.6189 17.4151 4.42985 17.9439 4.42985ZM19.9377 20.5794H25.919V24.1682H19.9377V29.5513H15.9502V24.1682H9.96885V20.5794H15.9502V15.1962H19.9377V20.5794Z" fill="#5B7288"/>
</svg>
