<svg width="22" height="22" viewBox="0 0 22 22" fill="none" xmlns="http://www.w3.org/2000/svg">
<rect width="22" height="22" fill="white"/>
<rect width="22" height="6.84444" fill="#9D9D9D"/>
<rect y="7.33331" width="22" height="14.6667" fill="#9D9D9D"/>
<path d="M5.62892 14.2648C4.98569 14.0799 4.51694 13.8533 4.22267 13.5851C3.931 13.3142 3.78517 12.9809 3.78517 12.5851C3.78517 12.1372 3.96356 11.7674 4.32033 11.4757C4.6797 11.1814 5.14585 11.0343 5.71876 11.0343C6.10939 11.0343 6.45704 11.1098 6.76173 11.2609C7.06902 11.4119 7.306 11.6202 7.47267 11.8859C7.64194 12.1515 7.72658 12.4419 7.72658 12.757H6.97267C6.97267 12.4132 6.86329 12.1437 6.64454 11.9484C6.42579 11.7504 6.1172 11.6515 5.71876 11.6515C5.34897 11.6515 5.05991 11.7335 4.85158 11.8976C4.64585 12.059 4.54298 12.2843 4.54298 12.5734C4.54298 12.8051 4.64064 13.0017 4.83595 13.1632C5.03387 13.3221 5.3685 13.4679 5.83986 13.6007C6.31382 13.7335 6.68361 13.8807 6.94923 14.0421C7.21746 14.201 7.41538 14.3872 7.54298 14.6007C7.67319 14.8142 7.73829 15.0656 7.73829 15.3546C7.73829 15.8156 7.55861 16.1853 7.19923 16.464C6.83986 16.74 6.35939 16.8781 5.75783 16.8781C5.3672 16.8781 5.00262 16.8038 4.66408 16.6554C4.32553 16.5044 4.06382 16.2986 3.87892 16.0382C3.69663 15.7778 3.60548 15.4822 3.60548 15.1515H4.35939C4.35939 15.4952 4.48569 15.7674 4.73829 15.9679C4.9935 16.1658 5.33335 16.2648 5.75783 16.2648C6.15366 16.2648 6.45704 16.184 6.66798 16.0226C6.87892 15.8611 6.98439 15.6411 6.98439 15.3624C6.98439 15.0838 6.88673 14.8689 6.69142 14.7179C6.49611 14.5642 6.14194 14.4132 5.62892 14.2648ZM12.9024 16.0538C12.7096 16.3299 12.4401 16.5369 12.0938 16.6749C11.75 16.8103 11.349 16.8781 10.8906 16.8781C10.4271 16.8781 10.0156 16.77 9.65626 16.5538C9.29689 16.3351 9.01824 16.0252 8.82033 15.6241C8.62501 15.2231 8.52475 14.7583 8.51954 14.2296V13.7335C8.51954 12.8767 8.71876 12.2127 9.1172 11.7413C9.51824 11.27 10.0807 11.0343 10.8047 11.0343C11.3985 11.0343 11.8763 11.1866 12.2383 11.4913C12.6003 11.7934 12.8216 12.2231 12.9024 12.7804H12.1524C12.0117 12.0278 11.5638 11.6515 10.8086 11.6515C10.306 11.6515 9.92449 11.8286 9.66408 12.1827C9.40626 12.5343 9.27606 13.0447 9.27345 13.714V14.1788C9.27345 14.8169 9.41928 15.3247 9.71095 15.7023C10.0026 16.0773 10.3971 16.2648 10.8945 16.2648C11.1758 16.2648 11.4219 16.2335 11.6328 16.171C11.8438 16.1085 12.0182 16.0031 12.1563 15.8546V14.5773H10.8399V13.9679H12.9024V16.0538ZM18.3399 14.9952C18.2695 15.5968 18.0469 16.0616 17.6719 16.3898C17.2995 16.7153 16.8034 16.8781 16.1836 16.8781C15.5117 16.8781 14.9727 16.6372 14.5664 16.1554C14.1628 15.6736 13.961 15.0291 13.961 14.2218V13.6749C13.961 13.1463 14.0547 12.6814 14.2422 12.2804C14.4323 11.8794 14.7005 11.5721 15.0469 11.3585C15.3932 11.1424 15.7943 11.0343 16.25 11.0343C16.8542 11.0343 17.3386 11.2036 17.7031 11.5421C18.0677 11.8781 18.28 12.3442 18.3399 12.9406H17.586C17.5208 12.4874 17.3789 12.1593 17.1602 11.9562C16.944 11.7531 16.6406 11.6515 16.25 11.6515C15.7708 11.6515 15.3945 11.8286 15.1211 12.1827C14.8503 12.5369 14.7149 13.0408 14.7149 13.6945V14.2452C14.7149 14.8624 14.8438 15.3533 15.1016 15.7179C15.3594 16.0825 15.7201 16.2648 16.1836 16.2648C16.6003 16.2648 16.9193 16.171 17.1406 15.9835C17.3646 15.7934 17.513 15.464 17.586 14.9952H18.3399Z" fill="white"/>
<path d="M4.88223 3.90442C4.48021 3.78886 4.18725 3.64726 4.00333 3.47961C3.82103 3.31034 3.72989 3.10201 3.72989 2.85461C3.72989 2.57467 3.84138 2.34355 4.06436 2.16125C4.28897 1.97734 4.58031 1.88538 4.93839 1.88538C5.18253 1.88538 5.39981 1.93258 5.59024 2.02698C5.7823 2.12138 5.93041 2.25159 6.03458 2.4176C6.14037 2.58362 6.19327 2.7651 6.19327 2.96204H5.72208C5.72208 2.74719 5.65372 2.57874 5.517 2.45667C5.38028 2.33297 5.18741 2.27112 4.93839 2.27112C4.70727 2.27112 4.5266 2.32239 4.39639 2.42493C4.26781 2.52584 4.20352 2.66663 4.20352 2.84729C4.20352 2.99215 4.26456 3.11503 4.38663 3.21594C4.51033 3.31523 4.71947 3.40637 5.01407 3.48938C5.31029 3.57239 5.54141 3.66435 5.70743 3.76526C5.87507 3.86454 5.99877 3.98092 6.07852 4.11438C6.1599 4.24784 6.20059 4.40491 6.20059 4.58557C6.20059 4.87366 6.08829 5.10478 5.86368 5.27893C5.63907 5.45146 5.33878 5.53772 4.9628 5.53772C4.71866 5.53772 4.49079 5.49133 4.27921 5.39856C4.06762 5.30416 3.90404 5.17558 3.78848 5.01282C3.67455 4.85006 3.61758 4.66532 3.61758 4.45862H4.08878C4.08878 4.67346 4.16771 4.84355 4.32559 4.96887C4.4851 5.09257 4.6975 5.15442 4.9628 5.15442C5.21019 5.15442 5.39981 5.10396 5.53165 5.00305C5.66348 4.90214 5.7294 4.76461 5.7294 4.59045C5.7294 4.4163 5.66837 4.28202 5.5463 4.18762C5.42422 4.09159 5.20287 3.99719 4.88223 3.90442ZM7.30655 5.48889H6.8378V1.9342H7.30655V5.48889ZM10.8979 5.48889H10.4267L8.63712 2.74963V5.48889H8.16592V1.9342H8.63712L10.4315 4.68567V1.9342H10.8979V5.48889ZM14.3451 4.36096C14.3012 4.73694 14.162 5.02747 13.9276 5.23254C13.6949 5.43599 13.3848 5.53772 12.9975 5.53772C12.5775 5.53772 12.2406 5.38717 11.9867 5.08606C11.7344 4.78495 11.6083 4.38212 11.6083 3.87756V3.53577C11.6083 3.20536 11.6669 2.91484 11.7841 2.66418C11.9029 2.41353 12.0705 2.22148 12.287 2.08801C12.5035 1.95292 12.7541 1.88538 13.039 1.88538C13.4166 1.88538 13.7193 1.99117 13.9472 2.20276C14.175 2.41272 14.3077 2.70406 14.3451 3.07678H13.8739C13.8332 2.79358 13.7445 2.5885 13.6078 2.46155C13.4727 2.33459 13.2831 2.27112 13.039 2.27112C12.7395 2.27112 12.5043 2.3818 12.3334 2.60315C12.1641 2.8245 12.0795 3.13944 12.0795 3.54797V3.89221C12.0795 4.27795 12.1601 4.58476 12.3212 4.81262C12.4823 5.04049 12.7078 5.15442 12.9975 5.15442C13.2579 5.15442 13.4573 5.09583 13.5956 4.97864C13.7356 4.85982 13.8284 4.65393 13.8739 4.36096H14.3451ZM17.7216 3.82629C17.7216 4.1746 17.663 4.47896 17.5458 4.73938C17.4286 4.99817 17.2626 5.19592 17.0478 5.33264C16.8329 5.46936 16.5823 5.53772 16.2958 5.53772C16.0159 5.53772 15.7676 5.46936 15.5512 5.33264C15.3347 5.1943 15.1662 4.99817 15.0458 4.74426C14.927 4.48873 14.866 4.19332 14.8627 3.85803V3.60168C14.8627 3.25989 14.9221 2.95797 15.0409 2.69592C15.1597 2.43388 15.3274 2.23368 15.5439 2.09534C15.762 1.95536 16.011 1.88538 16.2909 1.88538C16.5758 1.88538 16.8264 1.95455 17.0429 2.0929C17.261 2.22961 17.4286 2.429 17.5458 2.69104C17.663 2.95146 17.7216 3.255 17.7216 3.60168V3.82629ZM17.2553 3.5968C17.2553 3.17525 17.1706 2.85217 17.0014 2.62756C16.8321 2.40133 16.5953 2.28821 16.2909 2.28821C15.9947 2.28821 15.7611 2.40133 15.5902 2.62756C15.421 2.85217 15.3339 3.16467 15.329 3.56506V3.82629C15.329 4.23482 15.4145 4.55627 15.5854 4.79065C15.7579 5.0234 15.9947 5.13977 16.2958 5.13977C16.5985 5.13977 16.8329 5.02991 16.9989 4.81018C17.1649 4.58883 17.2504 4.27226 17.2553 3.86047V3.5968Z" fill="white"/>
</svg>
