<svg width="20" height="22" viewBox="0 0 20 22" fill="none" xmlns="http://www.w3.org/2000/svg">
<path d="M7.5 4.09302C8.6 4.09302 9.5 3.17209 9.5 2.04651C9.5 0.92093 8.6 0 7.5 0C6.4 0 5.5 0.92093 5.5 2.04651C5.5 3.17209 6.4 4.09302 7.5 4.09302ZM3.75 7.57209L1 22H3.1L4.85 13.814L7 15.8605V22H9V14.2744L6.95 12.1767L7.55 9.10698C8.85 10.7442 10.8 11.7674 13 11.7674V9.72093C11.15 9.72093 9.55 8.69767 8.65 7.21395L7.7 5.57674C7.35 4.96279 6.7 4.60465 6 4.60465C5.75 4.60465 5.5 4.65581 5.25 4.75814L0 6.95814V11.7674H2V8.33953L3.75 7.57209ZM11 0.511628V7.67442H14.75V22H16.25V7.67442H20V0.511628H11ZM16.01 6.65116V4.86047H12.5V3.32558H16.01V1.53488L18.5 4.09302L16.01 6.65116Z" fill="#9D9D9D"/>
</svg>
